PathFileType	4	(X/Y/Z)	Patient4_TMGait_0pt4_01_right_26.trc.trc
DataRate	CameraRate	NumFrames	NumMarkers	Units	OrigDataRate	OrigDataStartFrame	OrigNumFrames
74.074074074074	74.074074074074	4	33	mm	74.074074074074	124	       141
Frame#	Time	Sacral			L.Shoulder			Chest			R.Shoulder			Neck			R.ASIS			L.ASIS			R.Thigh.Superior			R.Thigh.Lateral			R.Thigh.Inferior			R.Patella			L.Thigh.Superior			L.Thigh.Lateral			L.Thigh.Inferior			L.Patella			L.Shank.Superior			L.Shank.Lateral			L.Shank.Inferior			R.Shank.Superior			R.Shank.Lateral			R.Shank.Inferior			R.Heel			R.Midfoot.Superior			R.Midfoot.Lateral			R.Toe			L.Heel			L.Midfoot.Lateral			L.Midfoot.Superior			L.Toe			L.Elbow			L.Wrist			R.Elbow			R.Wrist			
		X1	Y1	Z1	X2	Y2	Z2	X3	Y3	Z3	X4	Y4	Z4	X5	Y5	Z5	X6	Y6	Z6	X7	Y7	Z7	X8	Y8	Z8	X9	Y9	Z9	X10	Y10	Z10	X11	Y11	Z11	X12	Y12	Z12	X13	Y13	Z13	X14	Y14	Z14	X15	Y15	Z15	X16	Y16	Z16	X17	Y17	Z17	X18	Y18	Z18	X19	Y19	Z19	X20	Y20	Z20	X21	Y21	Z21	X22	Y22	Z22	X23	Y23	Z23	X24	Y24	Z24	X25	Y25	Z25	X26	Y26	Z26	X27	Y27	Z27	X28	Y28	Z28	X29	Y29	Z29	X30	Y30	Z30	X31	Y31	Z31	X32	Y32	Z32	X33	Y33	Z33	

124	35.120500000000	887.190573790900	1001.341917712149	439.768072777414	1091.181281348094	1421.305245714692	256.298455303448	1166.550994081688	1365.749165635885	435.728758933756	1053.314175604328	1447.850303592791	588.245754107301	1049.785204497691	1491.697702442534	404.568017731751	1104.468139550581	940.751072414879	580.610250592390	1117.694016053578	962.135609346114	304.616774352075	1176.601859902006	755.109023982082	554.539213302878	1116.990626636502	635.619784927757	620.883343889917	1206.314573095006	594.079151125565	544.795218021931	1225.883981601043	507.366451697143	558.437296165793	1120.833629611090	734.926123876418	328.953821419244	1006.671213930769	637.957536237064	263.950933380016	1068.422705750473	545.477075670378	326.715894778547	1054.037245554193	479.284092423805	335.977083758645	1021.462635695247	412.578268145269	327.677424764066	918.971023567385	308.445536492804	277.068862942517	958.433681310963	192.301484221030	350.149224890582	1201.000181038587	416.852109467090	570.473495621497	1134.182191339909	312.852152697152	637.244525046032	1187.242492431450	217.151909330515	584.761773258473	1067.960900900528	45.486624530748	565.357047568486	1238.268496678407	102.758949649541	597.142332509272	1153.355976910326	38.689818272879	637.311236080920	1359.405792284781	54.441524566858	621.627834942625	819.491001408722	41.530872283615	393.214092356996	895.493717576374	35.871825229359	315.145241835100	979.117479264256	96.265485958723	343.263740631929	1107.695461840639	40.936412687968	319.700944034591	1177.628844552153	1087.945240564808	128.861300865161	1405.594768718803	957.853863752273	148.869563468848	929.578740809586	1128.560112341642	709.142819834420	978.085664238607	872.076802540575	735.241305057020	
125	35.134000000000	888.180594278276	1000.448446764247	443.093287630657	1089.394266623466	1421.021146331468	259.442494235539	1165.998845193591	1365.745365600050	438.463825821636	1053.141921445329	1447.211359163414	591.655175056395	1048.714253382447	1491.280965008352	407.996881894507	1106.373462489923	939.888050260893	582.612443618052	1118.190240754627	961.993834058578	306.897547408783	1177.499442622600	752.715585991666	555.558317041925	1116.340502443150	633.950225695820	621.310519115528	1204.868955739059	591.878116207481	544.664848810298	1223.274137071423	504.807032159024	557.603533671911	1120.691985293196	734.384545171760	330.111750768426	1005.372031883466	638.135467037311	265.684281082221	1067.001251114964	545.040820135911	327.709470414838	1052.364463544185	478.530136675027	336.886218819944	1018.998314499760	412.235062443432	328.534021015014	915.191542804286	309.249795574602	278.067886433527	953.896916762492	192.343172801607	350.373262504895	1197.802653068267	414.232464548355	569.837815843646	1130.557901791383	310.750235850755	636.967201962069	1181.713485332819	214.533130477786	583.660615358496	1060.052671749855	44.552755424351	565.221755890513	1230.953513846756	100.515772198900	595.882685157899	1145.590039219926	37.809116057639	637.064174940867	1352.029019201314	51.381643006180	620.451861710736	814.088127454274	42.110202100239	393.150609647549	890.111216269929	36.072910001109	315.192154295667	973.857014023844	96.341926918534	343.200306913820	1102.330706043015	40.743286163558	319.633978442415	1173.993162724275	1086.506569631961	132.613901656251	1398.951270487036	950.677257174229	149.617408430461	933.146985945912	1126.663712538178	713.546301828058	990.269118755372	871.786179285455	738.496040557793	
126	35.147500000000	889.098412216326	999.803242297610	446.478129768514	1087.707665948354	1421.010641362071	262.750088617607	1165.562625673940	1365.893520947851	441.318160501424	1053.174329823301	1446.726859217037	595.231670364345	1047.784214002258	1491.096546025193	411.637436334444	1108.220985111683	939.350221089414	584.740301996641	1118.608441462920	961.954555731595	309.307006505672	1178.198413417953	750.693671378197	556.572463075300	1115.790533389886	632.741877855881	621.970263000317	1203.312291266460	590.087578517001	544.568384780394	1220.769109790026	502.722132078381	556.945281336948	1120.871516202058	734.052622606824	331.485908681340	1004.673848683067	638.297960418695	267.590410932820	1066.412462075009	544.667924762233	328.858643666830	1051.626901567018	477.679198903255	337.861085382613	1017.243958832126	411.834818614986	329.485124974746	911.913986226709	310.211650033608	279.183652987874	949.639290492209	192.436826981543	350.610533177929	1194.849840038000	412.147855350590	569.385726175420	1127.456629823725	309.067477244866	636.932315456949	1176.818017873386	212.471772271621	582.753229445801	1053.193031287307	43.823594050213	565.182971748788	1224.455108641620	98.993104869510	594.947264513359	1138.832480266260	37.284286535637	636.960581382118	1345.550104911386	49.344639123248	619.642225546562	808.711450268949	42.968520182834	393.062673150485	884.753418504564	36.368867342393	315.228123041060	968.700978210008	96.441142702825	343.078754014236	1096.992139937997	40.507541360105	319.550015736883	1169.977331508741	1085.210050543021	136.566315092293	1391.241943300358	942.949748808514	150.208734034186	937.108083307886	1124.924359357805	718.171543503147	1003.018214338610	872.023358072471	742.059046679294	
127	35.161000000000	889.930674263360	999.438286513776	449.910075920916	1086.157133987196	1421.306505074496	266.192483613188	1165.233095526518	1366.217015585921	444.276320112277	1053.388384119364	1446.439125490762	598.935303265207	1046.985447571283	1491.170499430764	415.444297448660	1109.959144074139	939.180190285423	587.038474616674	1118.930246030166	962.049925312719	311.855415861047	1178.713334888999	749.155993528377	557.654521748603	1115.379896023038	632.016232604492	622.914962947442	1201.728881557529	588.757895114765	544.623198093761	1218.385636641798	501.133619028401	556.578411583045	1121.387125385080	733.968409344094	333.103093632090	1004.647627117768	638.442086621586	269.650982766124	1066.768236835224	544.372099038835	330.138957195281	1051.957033974040	476.731565627101	338.834909420654	1016.291655779563	411.381299147585	330.488462510897	909.218806464262	311.371510901372	280.389355716587	945.720662342191	192.620641124887	350.827331945995	1192.119412303649	410.599496496609	569.180208466611	1124.774953239672	307.825853632551	637.159772061144	1172.453337836070	210.966883424515	582.076359610917	1047.214967578473	43.320714881427	565.212322543229	1218.655100233755	98.098260771790	594.323827863687	1132.915864100495	37.053408470973	636.964358052292	1339.816921940733	48.150060389801	619.169245605665	803.384035425682	44.197249639824	392.937497249674	879.431038912914	36.797845324154	315.241725045355	963.689286577218	96.573646464067	342.869038566704	1091.675586085521	40.235799732804	319.449985588706	1165.590836287050	1084.107193404065	140.704364549812	1382.404654848837	934.788677835264	150.686305424532	941.457547102483	1123.395629309938	722.991159585666	1016.286954194311	872.872464716798	745.892630043845	
